HIERARCHY
ROOT Hips
{
	OFFSET 0.000000 0.000000 0.000000
	CHANNELS 6 Xposition Yposition Zposition Zrotation Yrotation Xrotation 
	JOINT LHipJoint
	{
		OFFSET 0.000000 0.000000 0.000000
		CHANNELS 3 Zrotation Yrotation Xrotation
		JOINT LeftUpLeg
		{
			OFFSET 1.363060 -1.794630 0.839290
			CHANNELS 3 Zrotation Yrotation Xrotation
			JOINT LeftLeg
			{
				OFFSET 2.448110 -6.726130 0.000000
				CHANNELS 3 Zrotation Yrotation Xrotation
				JOINT LeftFoot
				{
					OFFSET 2.562200 -7.039590 0.000000
					CHANNELS 3 Zrotation Yrotation Xrotation
					JOINT LeftToeBase
					{
						OFFSET 0.157640 -0.433110 2.322550
						CHANNELS 3 Zrotation Yrotation Xrotation
						End Site
						{
							OFFSET 0.000000 0.000000 0.000000
						}
					}
				}
			}
		}
	}
	JOINT RHipJoint
	{
		OFFSET 0.000000 0.000000 0.000000
		CHANNELS 3 Zrotation Yrotation Xrotation
		JOINT RightUpLeg
		{
			OFFSET -1.305520 -1.794630 0.839290
			CHANNELS 3 Zrotation Yrotation Xrotation
			JOINT RightLeg
			{
				OFFSET -2.542530 -6.985550 0.000000
				CHANNELS 3 Zrotation Yrotation Xrotation
				JOINT RightFoot
				{
					OFFSET -2.568260 -7.056230 0.000000
					CHANNELS 3 Zrotation Yrotation Xrotation
					JOINT RightToeBase
					{
						OFFSET -0.164730 -0.452590 2.363150
						CHANNELS 3 Zrotation Yrotation Xrotation
						End Site
						{
							OFFSET 0.000000 0.000000 0.000000
						}
					}
				}
			}
		}
	}
	JOINT LowerBack
	{
		OFFSET 0.000000 0.000000 0.000000
		CHANNELS 3 Zrotation Yrotation Xrotation
		JOINT Spine
		{
			OFFSET 0.028270 2.035590 -0.193380
			CHANNELS 3 Zrotation Yrotation Xrotation
			JOINT Spine1
			{
				OFFSET 0.056720 2.048850 -0.042750
				CHANNELS 3 Zrotation Yrotation Xrotation
				JOINT Neck
				{
					OFFSET 0.000000 0.000000 0.000000
					CHANNELS 3 Zrotation Yrotation Xrotation
					JOINT Neck1
					{
						OFFSET -0.054170 1.746240 0.172020
						CHANNELS 3 Zrotation Yrotation Xrotation
						JOINT Head
						{
							OFFSET 0.104070 1.761360 -0.123970
							CHANNELS 3 Zrotation Yrotation Xrotation
							End Site
							{
								OFFSET 0.000000 0.000000 0.000000
							}
						}
					}
				}
				JOINT LeftShoulder
				{
					OFFSET 0.000000 0.000000 0.000000
					CHANNELS 3 Zrotation Yrotation Xrotation
					JOINT LeftArm
					{
						OFFSET 3.362410 1.200890 -0.311210
						CHANNELS 3 Zrotation Yrotation Xrotation
						JOINT LeftForeArm
						{
							OFFSET 4.983000 -0.000000 -0.000000
							CHANNELS 3 Zrotation Yrotation Xrotation
							JOINT LeftHand
							{
								OFFSET 3.483560 -0.000000 -0.000000
								CHANNELS 3 Zrotation Yrotation Xrotation
								JOINT LeftFingerBase
								{
									OFFSET 0.000000 0.000000 0.000000
									CHANNELS 3 Zrotation Yrotation Xrotation
									JOINT LeftHandIndex1
									{
										OFFSET 0.715260 -0.000000 -0.000000
										CHANNELS 3 Zrotation Yrotation Xrotation
										End Site
										{
											OFFSET 0.000000 0.000000 0.000000
										}
									}
								}
								JOINT LThumb
								{
									OFFSET 0.000000 0.000000 0.000000
									CHANNELS 3 Zrotation Yrotation Xrotation
									End Site
									{
										OFFSET 0.000000 0.000000 0.000000
									}
								}
							}
						}
					}
				}
				JOINT RightShoulder
				{
					OFFSET 0.000000 0.000000 0.000000
					CHANNELS 3 Zrotation Yrotation Xrotation
					JOINT RightArm
					{
						OFFSET -3.136600 1.374050 -0.404650
						CHANNELS 3 Zrotation Yrotation Xrotation
						JOINT RightForeArm
						{
							OFFSET -5.241900 -0.000000 -0.000000
							CHANNELS 3 Zrotation Yrotation Xrotation
							JOINT RightHand
							{
								OFFSET -3.444170 -0.000000 -0.000000
								CHANNELS 3 Zrotation Yrotation Xrotation
								JOINT RightFingerBase
								{
									OFFSET 0.000000 0.000000 0.000000
									CHANNELS 3 Zrotation Yrotation Xrotation
									JOINT RightHandIndex1
									{
										OFFSET -0.622530 -0.000000 -0.000000
										CHANNELS 3 Zrotation Yrotation Xrotation
										End Site
										{
											OFFSET 0.000000 0.000000 0.000000
										}
									}
								}
								JOINT RThumb
								{
									OFFSET 0.000000 0.000000 0.000000
									CHANNELS 3 Zrotation Yrotation Xrotation
									End Site
									{
										OFFSET 0.000000 0.000000 0.000000
									}
								}
							}
						}
					}
				}
			}
		}
	}
}
MOTION
Frames: 6
Frame Time: 0.008333
-19.176577 16.221171 16.725826 163.923237 63.581966 168.478246 -2.780471 -5.722698 -8.405569 -21.990199 -6.964987 -15.951382 -7.201305 1.977511 7.028876 -0.172342 7.708022 6.006970 -8.837197 17.828424 6.571469 1.861971 12.674395 -11.791210 -0.449063 -25.049791 10.518546 -2.905084 -20.038153 34.182022 17.265398 11.130484 -4.917921 -1.025089 20.056568 10.782424 -7.574304 -2.950731 25.851370 1.127043 2.151135 -13.677742 -9.103469 1.457824 -4.171369 1.565257 2.056791 -10.687086 6.742703 1.084613 18.754373 -8.057177 14.627605 15.056802 8.078583 4.925029 1.637115 -85.067888 4.521209 -19.274047 -3.073377 -5.553462 -12.493782 18.016686 15.545200 0.004425 0.000001 -0.000001 0.000002 0.000000 0.000000 0.000000 0.000000 0.000000 0.000000 -3.342510 9.095621 2.801606 73.951882 28.965906 12.211213 -15.393541 69.748890 -5.565127 8.440617 3.055409 0.791809 -0.000000 -0.000000 -0.000000 0.000000 -0.000000 0.000000 -0.000000 -0.000000 -0.000000 
-19.024474 16.233033 16.651201 164.021834 63.350934 168.534972 -2.590913 -5.838547 -8.546039 -22.592339 -6.360879 -15.434966 -7.235436 1.557912 7.502343 0.125116 8.010629 5.758222 -7.467779 15.019073 5.285875 2.022346 12.621382 -11.596911 -1.256229 -25.176207 9.990282 -3.297649 -20.376177 35.850026 24.260787 9.904900 -2.959734 1.766715 14.248497 14.482909 -7.490307 -2.907158 25.676740 1.067681 2.128027 -13.623513 -9.000883 1.432175 -4.293091 1.365147 2.089484 -10.571530 6.733366 1.146865 18.808161 -8.103149 14.789179 15.168260 7.928841 4.752957 1.751615 -85.170842 4.315566 -19.002679 -3.041408 -5.617335 -13.691660 18.666505 16.946967 0.117004 0.000001 -0.000001 0.000002 -0.000000 0.000000 0.000000 -0.000000 -0.000000 0.000000 -3.533753 9.062302 2.776553 74.328693 28.156650 11.848120 -13.636612 68.722880 -4.261823 8.463683 3.061816 0.794190 0.000000 -0.000000 0.000000 -0.000000 0.000000 0.000000 0.000000 -0.000000 0.000000 
-18.883784 16.234084 16.585586 164.026564 63.181819 168.426920 -2.266953 -5.775898 -8.644690 -23.210314 -6.564534 -14.715234 -7.091183 1.770941 7.747629 0.790312 8.302417 5.488998 -6.605169 13.089023 4.800224 2.167766 12.464524 -11.385582 -1.696589 -24.924485 8.651745 -4.178300 -20.191818 38.914958 27.216620 9.088707 -0.743599 6.689655 6.342129 24.302746 -7.563521 -2.911280 25.490941 1.089098 2.077609 -13.407449 -9.029656 1.412904 -4.368398 1.413854 2.110542 -10.462129 6.710991 1.166442 18.736255 -8.409943 14.928333 15.038530 8.153301 4.655957 1.801994 -85.408884 3.925653 -18.696639 -3.128772 -5.820194 -13.959615 17.675064 17.329500 -0.010529 0.000001 -0.000001 0.000002 -0.000000 0.000000 0.000000 0.000000 -0.000000 -0.000000 -3.608528 9.105450 2.788726 74.603428 27.505664 11.580456 -11.696045 67.424954 -2.566096 8.154054 3.570311 0.889465 0.000000 -0.000000 0.000000 -0.000000 0.000000 0.000000 0.000000 -0.000000 0.000000 
-18.743243 16.239940 16.511111 163.915942 63.175604 168.302987 -2.046323 -5.687290 -8.683513 -24.101350 -5.263594 -14.667475 -6.855841 0.843147 8.596258 1.765523 8.234351 5.404082 -6.603938 13.032759 4.877491 2.405002 12.125522 -11.198766 -1.913946 -22.432142 7.851379 -4.443778 -21.519340 41.353724 29.396462 7.742216 1.136434 9.475951 -6.234675 29.679045 -7.540451 -2.846643 25.216987 1.025053 2.165314 -13.275339 -8.943669 1.499607 -4.433286 1.259484 2.102625 -10.338255 6.695199 1.173337 18.719398 -8.278636 14.858106 15.364970 8.085532 4.395507 1.851591 -85.578233 3.566752 -18.562827 -3.208114 -6.017885 -14.339850 17.085644 17.855281 -0.086609 0.000001 -0.000001 0.000002 0.000000 -0.000000 0.000000 -0.000000 0.000000 -0.000000 -3.780994 8.980064 2.849182 74.831112 26.837073 11.357109 -10.034070 66.054168 -1.039309 8.080199 4.399326 1.062732 0.000000 0.000000 -0.000000 -0.000000 0.000000 0.000000 0.000000 0.000000 -0.000000 
-18.613664 16.239489 16.446697 164.102911 62.993468 168.349242 -1.748395 -5.759261 -8.973951 -24.743986 -4.670207 -14.024246 -6.641146 0.898811 8.982037 1.851527 8.278519 5.255642 -6.494632 13.299499 4.068469 2.536787 12.012839 -10.989839 -2.338918 -22.387623 6.487090 -4.987665 -20.899632 44.290924 31.977356 6.171558 3.224389 10.196724 -14.171005 30.192440 -7.442306 -2.789277 25.166814 0.996637 2.136414 -13.064198 -8.870799 1.511916 -4.729489 1.158794 2.121959 -10.068627 6.689872 1.210783 18.591903 -8.762163 15.071796 15.069625 8.236323 4.026214 1.857084 -85.883787 3.330268 -18.244180 -3.295171 -6.226211 -14.965728 16.549751 18.726933 -0.158691 0.000001 -0.000001 0.000002 0.000000 0.000000 0.000000 -0.000000 0.000000 0.000000 -4.055397 8.958948 2.841538 75.120969 26.063099 11.024922 -8.499731 64.654048 0.141602 7.013790 4.356336 0.994644 -0.000000 -0.000000 -0.000000 0.000000 -0.000000 0.000000 -0.000000 -0.000000 -0.000000 
-18.480030 16.237988 16.388589 164.163471 62.822194 168.335159 -1.359441 -5.862866 -9.201860 -25.385434 -4.326623 -13.455660 -6.492680 1.061843 9.311351 2.290234 8.394233 5.154962 -5.954650 11.954422 4.002091 2.690739 12.045250 -10.798637 -2.797581 -22.005291 5.287195 -5.132683 -20.487694 46.997707 32.296912 4.734019 4.914202 10.770976 -20.849050 30.579451 -7.555674 -2.793431 25.044428 1.041245 2.086725 -12.846072 -8.842561 1.474621 -4.636682 1.185193 2.151323 -10.169888 6.661517 1.241570 18.443896 -8.898055 15.160814 15.118996 8.469906 4.015614 1.851880 -86.147517 2.725905 -17.637470 -3.367365 -6.454962 -15.755840 16.065639 19.815152 -0.230865 0.000001 -0.000001 0.000002 -0.000000 -0.000000 0.000000 -0.000000 -0.000000 0.000000 -4.214264 8.909848 2.858087 75.391896 25.773239 10.784598 -7.159951 63.215889 1.585818 5.400939 5.051756 1.037400 -0.000000 0.000000 0.000000 0.000000 -0.000000 0.000000 -0.000000 0.000000 0.000000 
